<svg version="1.2" xmlns="http://www.w3.org/2000/svg" viewBox="0 0 612 193" width="612" height="193">
	<title>brand 3</title>
	<style>
		.s0 { fill: #017259 } 
		.s1 { fill: #01634d } 
		.s2 { fill: #ffffff } 
	</style>
	<path class="s0" d="m131.5 39.9c-0.1-0.9-0.9-1.3-1.5-1.3-0.6 0-13.7-1-13.7-1 0 0-9.1-9.1-10.2-10-1-1-2.9-0.7-3.7-0.5-0.1 0-2 0.6-5.1 1.6-3.1-8.9-8.4-17-17.9-17h-0.9c-2.6-3.4-6-5-8.8-5-22 0-32.6 27.5-35.9 41.5-8.6 2.7-14.7 4.5-15.4 4.8-4.8 1.5-4.9 1.6-5.5 6.1-0.5 3.4-13 100.1-13 100.1l97.3 18.2 52.8-11.4c0.1-0.2-18.4-125.2-18.5-126.1zm-39.6-9.8c-2.4 0.7-5.3 1.6-8.2 2.6v-1.8c0-5.4-0.7-9.8-2-13.3 5 0.6 8.1 6.1 10.2 12.5zm-16.3-11.4c1.3 3.4 2.2 8.2 2.2 14.8v1c-5.4 1.7-11.1 3.4-17 5.3 3.3-12.6 9.6-18.8 14.8-21.1zm-6.4-6.2c1 0 2 0.4 2.8 1-7.1 3.3-14.6 11.6-17.7 28.4-4.7 1.5-9.2 2.8-13.5 4.2 3.6-12.8 12.6-33.6 28.4-33.6z"/>
	<path class="s1" d="m130 38.4c-0.6 0-13.7-1-13.7-1 0 0-9.1-9.1-10.2-10-0.4-0.4-0.9-0.6-1.3-0.6l-7.3 150.6 52.8-11.4c0 0-18.5-125.2-18.6-126.1-0.4-0.9-1.1-1.3-1.7-1.5z"/>
	<path class="s2" d="m79.4 67.6l-6.4 19.3c0 0-5.8-3.1-12.7-3.1-10.3 0-10.8 6.5-10.8 8.1 0 8.8 23 12.2 23 32.9 0 16.3-10.3 26.8-24.2 26.8-16.8 0-25.2-10.4-25.2-10.4l4.5-14.8c0 0 8.8 7.6 16.2 7.6 4.9 0 6.9-3.8 6.9-6.6 0-11.5-18.8-12-18.8-31 0-15.9 11.4-31.3 34.5-31.3 8.6-0.1 13 2.5 13 2.5z"/>
	<path class="s1" d="m211.6 103.9c-5.3-2.8-8-5.3-8-8.6 0-4.2 3.8-6.9 9.7-6.9 6.9 0 13 2.8 13 2.8l4.8-14.7c0 0-4.4-3.4-17.4-3.4-18.1 0-30.7 10.4-30.7 25 0 8.3 5.9 14.6 13.7 19.1 6.4 3.5 8.6 6.1 8.6 9.9 0 3.9-3.2 7.1-9.1 7.1-8.7 0-17-4.5-17-4.5l-5.1 14.7c0 0 7.6 5.1 20.4 5.1 18.6 0 32.1-9.2 32.1-25.7-0.2-9-6.9-15.2-15-19.9zm74.2-31c-9.2 0-16.4 4.4-21.9 11l-0.2-0.1 8-41.6h-20.7l-20.2 106h20.7l6.9-36.2c2.7-13.7 9.8-22.2 16.4-22.2 4.7 0 6.5 3.2 6.5 7.7 0 2.8-0.2 6.4-0.9 9.2l-7.8 41.5h20.7l8.1-42.8c0.9-4.5 1.5-9.9 1.5-13.6-0.1-11.9-6.2-18.9-17.1-18.9zm63.9 0c-25 0-41.5 22.5-41.5 47.6 0 16 9.9 29 28.5 29 24.5 0 41-21.9 41-47.6 0.1-14.9-8.5-29-28-29zm-10.2 60.8c-7.1 0-10-6-10-13.6 0-11.9 6.1-31.2 17.4-31.2 7.3 0 9.8 6.4 9.8 12.5 0 12.7-6.3 32.3-17.2 32.3zm91.3-60.8c-14 0-21.9 12.4-21.9 12.4h-0.2l1.2-11.1h-18.4c-0.9 7.5-2.6 19-4.2 27.5l-14.3 75.9h20.7l5.8-30.7h0.5c0 0 4.3 2.7 12.1 2.7 24.4 0 40.3-25 40.3-50.2-0.1-14-6.4-26.5-21.6-26.5zm-19.8 61c-5.4 0-8.6-3.1-8.6-3.1l3.4-19.3c2.4-13 9.2-21.5 16.4-21.5 6.4 0 8.3 5.9 8.3 11.4 0.1 13.4-7.9 32.5-19.5 32.5zm70.9-90.7c-6.6 0-11.9 5.3-11.9 12 0 6.1 3.9 10.4 9.8 10.4h0.2c6.5 0 12-4.4 12.1-12 0.1-6.1-4-10.4-10.2-10.4zm-29 104.9h20.7l14-73.6h-20.8m73.6-0.1h-14.4l0.7-3.4c1.2-7.1 5.4-13.3 12.4-13.3 3.7 0 6.6 1.1 6.6 1.1l4-16.3c0 0-3.5-1.8-11.3-1.8-7.3 0-14.7 2.1-20.3 6.9-7.1 6-10.4 14.7-12 23.5l-0.6 3.4h-9.7l-3.1 15.7h9.7l-11 58h20.7l11-58h14.3zm49.9 0.1c0 0-13 32.7-18.7 50.6h-0.2c-0.4-5.8-5.1-50.6-5.1-50.6h-21.8l12.5 67.4c0.2 1.5 0.1 2.4-0.5 3.4-2.4 4.7-6.5 9.2-11.3 12.5-3.9 2.8-8.3 4.7-11.8 5.9l5.8 17.6c4.2-0.9 13-4.4 20.3-11.3 9.4-8.8 18.2-22.5 27.2-41.1l25.3-54.5h-21.7z"/>
</svg>