<svg version="1.2" xmlns="http://www.w3.org/2000/svg" viewBox="0 0 296 91" width="296" height="91">
	<title>brand 1</title>
	<style>
		.s0 { fill: #01634d } 
	</style>
	<path class="s0" d="m45.1 1c-23.3 0-42.3 17.9-44.1 40.7l23.7 9.8c2-1.4 4.4-2.2 7.1-2.2q0.3 0 0.7 0l10.5-15.2q0-0.2 0-0.3c0-9.2 7.5-16.6 16.7-16.6 9.2 0 16.7 7.4 16.7 16.6 0 9.2-7.5 16.7-16.7 16.7q-0.2 0-0.4 0l-15 10.7q0 0.3 0 0.6c0 6.9-5.6 12.6-12.5 12.6-6.1 0-11.2-4.4-12.3-10.1l-17-7c5.3 18.6 22.3 32.2 42.6 32.2 24.4 0 44.2-19.8 44.2-44.3 0-24.4-19.8-44.2-44.2-44.2z"/>
	<path class="s0" d="m28.7 68.1l-5.4-2.2c1 2 2.6 3.7 4.8 4.6 4.8 2 10.3-0.3 12.3-5.1 1-2.3 1-4.8 0-7.2-0.9-2.3-2.7-4.1-5-5.1-2.3-0.9-4.8-0.9-7-0.1l5.6 2.3c3.6 1.5 5.2 5.6 3.8 9.1-1.5 3.5-5.6 5.2-9.1 3.7z"/>
	<path class="s0" d="m70.8 33.8c0-6.1-5-11.1-11.1-11.1-6.1 0-11.1 5-11.1 11.1 0 6.2 5 11.2 11.1 11.2 6.1 0 11.1-5 11.1-11.2zm-19.5 0c0-4.6 3.8-8.3 8.4-8.3 4.6 0 8.4 3.7 8.4 8.3 0 4.6-3.8 8.4-8.4 8.4-4.6 0-8.4-3.8-8.4-8.4z"/>
	<path class="s0" d="m136.6 31.3l-3 5.2c-2.3-1.6-5.4-2.6-8.1-2.6-3.1 0-5 1.3-5 3.6 0 2.8 3.4 3.4 8.5 5.2 5.4 1.9 8.5 4.2 8.5 9.2 0 6.8-5.3 10.6-13 10.6-3.8 0-8.3-1-11.7-3.1l2.1-5.8c2.8 1.5 6.2 2.4 9.2 2.4 4.1 0 6-1.5 6-3.7 0-2.5-2.9-3.3-7.7-4.9-5.4-1.8-9.1-4.1-9.1-9.6 0-6.2 4.9-9.8 12.1-9.8 4.9 0 8.9 1.6 11.2 3.3z"/>
	<path class="s0" d="m152.8 61.9v-27.3h-10.2v-6h27.2v6h-10.1v27.3z"/>
	<path class="s0" d="m197.9 41.1v5.9h-13.4v7.9h15.5v6h-22.4v-33.3h22.4v5.9h-15.5v7.6z"/>
	<path class="s0" d="m215.6 55.4l-2.2 6.5h-7.3l12.5-33.3h7l12.9 33.3h-7.6l-2.3-6.5c0 0-13 0-13 0zm6.5-18.9l-4.6 13.4h9.2z"/>
	<path class="s0" d="m261.2 60.9l-8.9-19.3v20.3h-6.7v-33.3h6.6l11.2 24 10.8-24h6.8v33.3h-6.7v-20.4l-9.1 19.4z"/>
	<path class="s0" d="m294.5 32.8c0 2.8-2.2 4.6-4.7 4.6-2.4 0-4.6-1.8-4.6-4.6 0-2.9 2.2-4.7 4.6-4.7 2.5 0 4.7 1.8 4.7 4.7zm-8.5 0c0 2.4 1.7 3.9 3.8 3.9 2.2 0 3.9-1.5 3.9-3.9 0-2.4-1.7-3.9-3.9-3.9-2.1 0-3.8 1.5-3.8 3.9zm3.9-2.4c1.2 0 1.6 0.6 1.6 1.3 0 0.7-0.4 1.1-0.8 1.3l1.1 2h-0.9l-0.9-1.8h-1v1.8h-0.7v-4.6zm-0.8 2.1h0.8c0.5 0 0.8-0.3 0.8-0.7 0-0.4-0.2-0.7-0.8-0.7h-0.8c0 0 0 1.4 0 1.4z"/>
</svg>