<svg width="14" height="14" viewBox="0 0 14 14" fill="none" xmlns="http://www.w3.org/2000/svg">
<path d="M13 7.2918C12.8951 8.42661 12.4692 9.50807 11.7722 10.4097C11.0751 11.3113 10.1357 11.9957 9.0638 12.3828C7.99194 12.77 6.83199 12.8439 5.71966 12.5959C4.60734 12.3478 3.58866 11.7882 2.78281 10.9823C1.97697 10.1765 1.41729 9.15779 1.16927 8.04547C0.921246 6.93315 0.995139 5.77319 1.3823 4.70133C1.76946 3.62948 2.45388 2.69005 3.35547 1.99297C4.25706 1.2959 5.33853 0.870007 6.47333 0.765137C5.80894 1.66398 5.48923 2.77144 5.57235 3.88608C5.65547 5.00072 6.1359 6.04851 6.92626 6.83887C7.71662 7.62923 8.76441 8.10966 9.87905 8.19278C10.9937 8.2759 12.1012 7.9562 13 7.2918Z" stroke="#476B64" stroke-linecap="round" stroke-linejoin="round"/>
</svg>
