<svg width="35" height="41" viewBox="0 0 35 41" fill="none" xmlns="http://www.w3.org/2000/svg">
<path fill-rule="evenodd" clip-rule="evenodd" d="M21.4656 0.917824L32.1126 3.48542C34.1325 3.96471 35.3991 6.01878 34.8856 8.03863L29.3054 31.3182C28.8261 33.338 26.8062 34.6047 24.7864 34.1254L19.1719 32.756L18.0764 37.275C17.5971 39.2948 15.5773 40.5615 13.5574 40.0822L2.91048 37.5146C0.856398 37.0354 -0.376049 34.9813 0.103236 32.9614L5.68348 9.68189C6.16276 7.66205 8.21684 6.39536 10.2367 6.87465L15.8512 8.24403L16.9124 3.72506C17.3917 1.70522 19.4458 0.43854 21.4656 0.917824ZM19.1719 32.756L19.8566 29.983C19.8794 29.9146 19.8908 29.8461 19.8908 29.7776L23.8278 13.3108C24.2386 11.6333 23.2116 9.99 21.5683 9.57918L18.8296 8.92873C18.7839 8.92873 18.7497 8.91731 18.7269 8.89449L15.8512 8.2098L15.2007 10.8801C15.2007 10.9029 15.2007 10.9143 15.2007 10.9143C15.1551 11.0056 15.1208 11.1083 15.098 11.2224L11.161 27.6893C10.7844 29.3326 11.8115 31.0101 13.4547 31.3866L16.1935 32.0371L19.1719 32.756Z" fill="url(#paint0_linear_81_210)"/>
<defs>
<linearGradient id="paint0_linear_81_210" x1="6.10148" y1="33.8341" x2="35.8196" y2="1.09416" gradientUnits="userSpaceOnUse">
<stop stop-color="#245547"/>
<stop offset="1" stop-color="#00D4AA"/>
</linearGradient>
</defs>
</svg>
