<svg width="16" height="17" viewBox="0 0 16 17" fill="none" xmlns="http://www.w3.org/2000/svg">
<path d="M8.00002 10.765C9.10459 10.765 10 9.86954 10 8.76497C10 7.6604 9.10459 6.76497 8.00002 6.76497C6.89545 6.76497 6.00002 7.6604 6.00002 8.76497C6.00002 9.86954 6.89545 10.765 8.00002 10.765Z" stroke="#476B64" stroke-linecap="round" stroke-linejoin="round"/>
<path d="M12.9334 10.765C12.8446 10.9661 12.8181 11.1891 12.8573 11.4054C12.8966 11.6216 12.9997 11.8212 13.1534 11.9783L13.1934 12.0183C13.3173 12.1421 13.4157 12.2892 13.4828 12.4511C13.5499 12.6129 13.5844 12.7864 13.5844 12.9616C13.5844 13.1369 13.5499 13.3104 13.4828 13.4722C13.4157 13.6341 13.3173 13.7811 13.1934 13.905C13.0695 14.0289 12.9225 14.1273 12.7606 14.1944C12.5987 14.2615 12.4252 14.296 12.25 14.296C12.0748 14.296 11.9013 14.2615 11.7394 14.1944C11.5776 14.1273 11.4305 14.0289 11.3067 13.905L11.2667 13.865C11.1096 13.7113 10.91 13.6082 10.6937 13.569C10.4775 13.5298 10.2544 13.5562 10.0534 13.645C9.85617 13.7295 9.68801 13.8698 9.56956 14.0487C9.45111 14.2275 9.38754 14.4371 9.38669 14.6516V14.765C9.38669 15.1186 9.24621 15.4577 8.99616 15.7078C8.74611 15.9578 8.40698 16.0983 8.05335 16.0983C7.69973 16.0983 7.36059 15.9578 7.11054 15.7078C6.8605 15.4577 6.72002 15.1186 6.72002 14.765V14.705C6.71486 14.4843 6.64343 14.2703 6.51503 14.0908C6.38662 13.9112 6.20718 13.7745 6.00002 13.6983C5.79894 13.6096 5.57589 13.5831 5.35963 13.6223C5.14336 13.6615 4.94381 13.7646 4.78669 13.9183L4.74669 13.9583C4.62286 14.0823 4.4758 14.1806 4.31394 14.2477C4.15208 14.3148 3.97857 14.3494 3.80335 14.3494C3.62813 14.3494 3.45463 14.3148 3.29277 14.2477C3.1309 14.1806 2.98385 14.0823 2.86002 13.9583C2.73605 13.8345 2.63771 13.6874 2.57061 13.5256C2.50351 13.3637 2.46897 13.1902 2.46897 13.015C2.46897 12.8398 2.50351 12.6663 2.57061 12.5044C2.63771 12.3425 2.73605 12.1955 2.86002 12.0716L2.90002 12.0316C3.05371 11.8745 3.15681 11.675 3.19602 11.4587C3.23524 11.2424 3.20876 11.0194 3.12002 10.8183C3.03551 10.6211 2.89519 10.453 2.71633 10.3345C2.53747 10.2161 2.32788 10.1525 2.11335 10.1516H2.00002C1.6464 10.1516 1.30726 10.0112 1.05721 9.76112C0.807163 9.51107 0.666687 9.17193 0.666687 8.81831C0.666687 8.46468 0.807163 8.12555 1.05721 7.8755C1.30726 7.62545 1.6464 7.48497 2.00002 7.48497H2.06002C2.28068 7.47981 2.49469 7.40839 2.67422 7.27998C2.85375 7.15158 2.9905 6.97213 3.06669 6.76497C3.15543 6.5639 3.1819 6.34084 3.14269 6.12458C3.10348 5.90832 3.00038 5.70876 2.84669 5.55164L2.80669 5.51164C2.68272 5.38781 2.58437 5.24076 2.51727 5.07889C2.45017 4.91703 2.41564 4.74353 2.41564 4.56831C2.41564 4.39309 2.45017 4.21958 2.51727 4.05772C2.58437 3.89586 2.68272 3.7488 2.80669 3.62497C2.93052 3.50101 3.07757 3.40266 3.23943 3.33556C3.4013 3.26846 3.5748 3.23392 3.75002 3.23392C3.92524 3.23392 4.09874 3.26846 4.26061 3.33556C4.42247 3.40266 4.56952 3.50101 4.69335 3.62497L4.73335 3.66497C4.89047 3.81866 5.09003 3.92176 5.30629 3.96098C5.52256 4.00019 5.74561 3.97372 5.94669 3.88497H6.00002C6.1972 3.80047 6.36536 3.66014 6.48382 3.48128C6.60227 3.30242 6.66583 3.09283 6.66669 2.87831V2.76497C6.66669 2.41135 6.80716 2.07221 7.05721 1.82216C7.30726 1.57212 7.6464 1.43164 8.00002 1.43164C8.35364 1.43164 8.69278 1.57212 8.94283 1.82216C9.19288 2.07221 9.33335 2.41135 9.33335 2.76497V2.82497C9.33421 3.0395 9.39777 3.24909 9.51622 3.42795C9.63468 3.60681 9.80284 3.74713 10 3.83164C10.2011 3.92038 10.4241 3.94686 10.6404 3.90764C10.8567 3.86843 11.0562 3.76533 11.2134 3.61164L11.2534 3.57164C11.3772 3.44767 11.5242 3.34933 11.6861 3.28223C11.848 3.21513 12.0215 3.18059 12.1967 3.18059C12.3719 3.18059 12.5454 3.21513 12.7073 3.28223C12.8691 3.34933 13.0162 3.44767 13.14 3.57164C13.264 3.69547 13.3623 3.84252 13.4294 4.00439C13.4965 4.16625 13.5311 4.33975 13.5311 4.51497C13.5311 4.69019 13.4965 4.8637 13.4294 5.02556C13.3623 5.18742 13.264 5.33448 13.14 5.45831L13.1 5.49831C12.9463 5.65543 12.8432 5.85498 12.804 6.07125C12.7648 6.28751 12.7913 6.51056 12.88 6.71164V6.76497C12.9645 6.96215 13.1048 7.13032 13.2837 7.24877C13.4626 7.36722 13.6722 7.43078 13.8867 7.43164H14C14.3536 7.43164 14.6928 7.57212 14.9428 7.82216C15.1929 8.07221 15.3334 8.41135 15.3334 8.76497C15.3334 9.1186 15.1929 9.45773 14.9428 9.70778C14.6928 9.95783 14.3536 10.0983 14 10.0983H13.94C13.7255 10.0992 13.5159 10.1627 13.337 10.2812C13.1582 10.3996 13.0179 10.5678 12.9334 10.765Z" stroke="#476B64" stroke-linecap="round" stroke-linejoin="round"/>
</svg>
